<?xml version="1.0" encoding="UTF-8" ?>
<!DOCTYPE svg PUBLIC "-//W3C//DTD SVG 1.1//EN" "http://www.w3.org/Graphics/SVG/1.1/DTD/svg11.dtd">
<svg xmlns="http://www.w3.org/2000/svg" xmlns:xlink="http://www.w3.org/1999/xlink">
    <defs>
        <path id="a" d="M22.744 10H12.256v4.25h6.037c-.563 2.7-2.916 4.25-6.037 4.25-3.684 0-6.651-2.9-6.651-6.5s2.967-6.5 6.65-6.5A6.6 6.6 0 0 1 16.4 6.95l3.274-3.2C17.68 2.05 15.121 1 12.256 1 6.014 1 1 5.9 1 12s5.014 11 11.256 11C17.884 23 23 19 23 12c0-.65-.102-1.35-.256-2z" />
        <linearGradient x1="50%" y1="3.813%" x2="50%" y2="100%" id="a">
            <stop stop-color="#7342BF" offset="0%" />
            <stop stop-color="#A75CCE" offset="100%" />
        </linearGradient>
        <path id="a" d="M0 0h12v28H0z" />
    </defs>
    <symbol id="down-arrow" viewBox="0 0 12 9">
        <g fill="none" fill-rule="evenodd">
            <path fill="#A4ADB5" d="M1.41.84L6 5.42 10.59.84 12 2.25l-6 6-6-6z" />
            <path d="M-6-7.75h24v24H-6z" />
        </g>
    </symbol>
    <symbol id="ic_search" viewBox="0 0 24 24">
        <path d="M15.5 14h-.79l-.28-.27A6.471 6.471 0 0 0 16 9.5 6.5 6.5 0 1 0 9.5 16c1.61 0 3.09-.59 4.23-1.57l.27.28v.79l5 4.99L20.49 19l-4.99-5zm-6 0C7.01 14 5 11.99 5 9.5S7.01 5 9.5 5 14 7.01 14 9.5 11.99 14 9.5 14z" />
    </symbol>
    <symbol id="menu" viewBox="0 0 18 12">
        <g fill="none" fill-rule="evenodd">
            <path d="M-3-6h23.983v24H-3V-6z" />
            <path d="M-.002 12h17.987v-2H-.002v2zm0-5h17.987V5H-.002v2zm0-7v2h17.987V0H-.002z" fill="#A4ADB5" />
        </g>
    </symbol>
    <symbol id="ic_arrow_drop_down_24px" viewBox="0 0 24 24">
      <path d="M7 10l5 5 5-5z"/>
    </symbol>
    <symbol id="ic_menu_24px" viewBox="0 0 24 24">
      <path d="M3 18h18v-2H3v2zm0-5h18v-2H3v2zm0-7v2h18V6H3z"/>
    </symbol>
    <symbol id="ic_close_24px" viewBox="0 0 24 24">
      <path d="M19 6.41L17.59 5 12 10.59 6.41 5 5 6.41 10.59 12 5 17.59 6.41 19 12 13.41 17.59 19 19 17.59 13.41 12z"/>
    </symbol>
</svg>
