<?xml version="1.0" encoding="UTF-8"?><!DOCTYPE svg PUBLIC "-//W3C//DTD SVG 1.1//EN" "http://www.w3.org/Graphics/SVG/1.1/DTD/svg11.dtd"><svg xmlns="http://www.w3.org/2000/svg" xmlns:xlink="http://www.w3.org/1999/xlink"><defs><path id="a" d="M22.744 10H12.256v4.25h6.037c-.563 2.7-2.916 4.25-6.037 4.25-3.684 0-6.651-2.9-6.651-6.5s2.967-6.5 6.65-6.5A6.6 6.6 0 0 1 16.4 6.95l3.274-3.2C17.68 2.05 15.121 1 12.256 1 6.014 1 1 5.9 1 12s5.014 11 11.256 11C17.884 23 23 19 23 12c0-.65-.102-1.35-.256-2z"/><linearGradient x1="50%" y1="3.813%" x2="50%" y2="100%" id="a"><stop stop-color="#7342BF" offset="0%"/><stop stop-color="#A75CCE" offset="100%"/></linearGradient><path id="a" d="M0 0h12v28H0z"/></defs><symbol id="account-green" viewBox="0 0 48 48"><path d="M24 28.8c13.248 0 24 5.024 24 11.2v8H0v-8c0-6.176 10.752-11.2 24-11.2zM44.8 40c0-4.416-9.312-8-20.8-8-11.488 0-20.8 3.584-20.8 8v4.8h41.6V40zM24 0c6.176 0 11.2 5.024 11.2 11.2 0 6.176-5.024 11.2-11.2 11.2-6.176 0-11.2-5.024-11.2-11.2C12.8 5.024 17.824 0 24 0zm0 3.2c-4.416 0-8 3.584-8 8s3.584 8 8 8 8-3.584 8-8-3.584-8-8-8z" fill="#2FDF6B" fill-rule="evenodd"/></symbol><symbol id="account" viewBox="0 0 48 48"><path d="M24 28.8c13.248 0 24 5.024 24 11.2v8H0v-8c0-6.176 10.752-11.2 24-11.2zM44.8 40c0-4.416-9.312-8-20.8-8-11.488 0-20.8 3.584-20.8 8v4.8h41.6V40zM24 0c6.176 0 11.2 5.024 11.2 11.2 0 6.176-5.024 11.2-11.2 11.2-6.176 0-11.2-5.024-11.2-11.2C12.8 5.024 17.824 0 24 0zm0 3.2c-4.416 0-8 3.584-8 8s3.584 8 8 8 8-3.584 8-8-3.584-8-8-8z" fill="#439BE5" fill-rule="evenodd"/></symbol><symbol id="back-chevron" viewBox="0 0 16 16"><path d="M16 7H3.83l5.59-5.59L8 0 0 8l8 8 1.41-1.41L3.83 9H16V7z" fill="#A4ADB5" fill-rule="evenodd"/></symbol><symbol id="bin" viewBox="0 0 14 18"><g fill="none" fill-rule="evenodd"><path d="M1 16c0 1.1.9 2 2 2h8c1.1 0 2-.9 2-2V4H1v12zM14 1h-3.5l-1-1h-5l-1 1H0v2h14V1z" fill="#A4ADB5"/><path d="M-5-3h24v24H-5V-3z"/></g></symbol><symbol id="blue-video" viewBox="0 0 48 48"><path d="M2.526 44.438l9.07-9.07H40.42a5.067 5.067 0 0 0 5.053-5.052V7.579a5.067 5.067 0 0 0-5.053-5.053H7.58A5.067 5.067 0 0 0 2.526 7.58v36.859zm0 3.562H0V7.579A7.569 7.569 0 0 1 7.579 0H40.42A7.569 7.569 0 0 1 48 7.579v22.737a7.569 7.569 0 0 1-7.579 7.579h-27.79L2.527 48zm35.369-37.895V27.79h-2.527l-5.052-5.052v5.052h-20.21V10.105h20.21v5.053l5.052-5.053h2.527zm-7.58 8.615v.455l5.053 5.052v-10.56l-5.052 5.053zm-17.683-6.088v12.631h15.157V12.632H12.632z" fill="#009CE9" fill-rule="evenodd"/></symbol><symbol id="book" viewBox="0 0 20 24"><path d="M3.84 0h11.52c2.125 0 3.84 1.693 3.84 3.79v16.42c0 2.097-1.715 3.79-3.84 3.79H3.84C1.715 24 0 22.307 0 20.21V3.79C0 1.692 1.715 0 3.84 0zm0 1.263c-1.408 0-2.56 1.137-2.56 2.526v16.422c0 1.389 1.152 2.526 2.56 2.526h11.52c1.408 0 2.56-1.137 2.56-2.526V3.789c0-1.389-1.152-2.526-2.56-2.526h-3.84v8.463L7.68 7.074 3.84 9.726V1.263zm6.4 0H5.12v6.038l2.56-1.768L10.24 7.3V1.263z" fill="#5A646F" fill-rule="evenodd"/></symbol><symbol id="briefcase" viewBox="0 0 26 24"><path d="M3.989 5.333h3.989V2.667L10.638 0h3.988l2.66 2.667v2.666h3.988a3.99 3.99 0 0 1 3.99 4V20c0 2.213-1.783 4-3.99 4H3.99A3.99 3.99 0 0 1 0 20V9.333c0-2.213 1.782-4 3.989-4zm7.193-4l-1.875 1.88v2.12h6.649v-2.12l-1.875-1.88h-2.899zM3.99 6.667a2.67 2.67 0 0 0-2.66 2.666V20a2.67 2.67 0 0 0 2.66 2.667h17.285A2.67 2.67 0 0 0 23.934 20V9.333a2.67 2.67 0 0 0-2.66-2.666H3.99z" fill="#5A646F" fill-rule="evenodd"/></symbol><symbol id="calendar" viewBox="0 0 42 48"><path d="M9.882 0h2.47c1.36 0 2.472 1.137 2.472 2.526v2.527h12.352V2.526c0-1.39 1.112-2.526 2.471-2.526h2.47c1.36 0 2.471 1.137 2.471 2.526v2.527C38.69 5.053 42 8.438 42 12.632v27.79C42 44.614 38.69 48 34.588 48H7.412C3.31 48 0 44.615 0 40.421v-27.79c0-4.193 3.31-7.578 7.412-7.578V2.526C7.412 1.136 8.524 0 9.882 0zm19.765 5.053h2.47V2.526h-2.47v2.527zm-17.294 0V2.526h-2.47v2.527h2.47zM7.412 7.579c-2.718 0-4.941 2.274-4.941 5.053v2.526h37.058v-2.526c0-2.78-2.223-5.053-4.94-5.053H7.411zM2.47 40.42c0 2.779 2.223 5.053 4.94 5.053h27.177c2.718 0 4.941-2.274 4.941-5.053V17.684H2.471v22.737zM22.235 27.79h12.353v12.632H22.235V27.79zm2.47 2.527v7.579h7.413v-7.58h-7.412z" fill="#2FDF6B" fill-rule="evenodd"/></symbol><symbol id="close" viewBox="0 0 14 14"><g fill="none" fill-rule="evenodd"><path d="M14 1.41L12.59 0 7 5.59 1.41 0 0 1.41 5.59 7 0 12.59 1.41 14 7 8.41 12.59 14 14 12.59 8.41 7 14 1.41z" fill="#A4ADB5"/><path d="M-5-5h24v24H-5V-5z"/></g></symbol><symbol id="cpu" viewBox="0 0 24 24"><path d="M7.059 21.176a4.23 4.23 0 0 1-4.235-4.235V15.53H0v-1.411h2.824V9.882H0V8.471h2.824V7.059a4.23 4.23 0 0 1 4.235-4.235H8.47V0h1.411v2.824h4.236V0h1.411v2.824h1.412a4.23 4.23 0 0 1 4.235 4.235V8.47H24v1.411h-2.824v4.236H24v1.411h-2.824v1.412a4.23 4.23 0 0 1-4.235 4.235H15.53V24h-1.411v-2.824H9.882V24H8.471v-2.824H7.059zm0-16.94a2.832 2.832 0 0 0-2.824 2.823v9.882a2.832 2.832 0 0 0 2.824 2.824h9.882a2.832 2.832 0 0 0 2.824-2.824V7.06a2.832 2.832 0 0 0-2.824-2.824H7.06zM8.47 15.528V8.471h7.058v7.058H8.471zm1.411-5.647v4.236h4.236V9.882H9.882z" fill="#5A646F" fill-rule="evenodd"/></symbol><symbol id="down-arrow" viewBox="0 0 12 9"><g fill="none" fill-rule="evenodd"><path fill="#A4ADB5" d="M1.41.84L6 5.42 10.59.84 12 2.25l-6 6-6-6z"/><path d="M-6-7.75h24v24H-6z"/></g></symbol><symbol id="facebook-square" viewBox="0 0 16 17"><path d="M13.615 8.943h-1.823v6.615h-2.73V8.943H7.699v-2.28h1.365V5.297c0-1.865.77-2.97 2.958-2.97h1.823V4.61h-1.146c-.844 0-.906.323-.906.917v1.135h2.062l-.24 2.281zM16 3.714a3 3 0 0 0-3-3H3a3 3 0 0 0-3 3v10a3 3 0 0 0 3 3h10a3 3 0 0 0 3-3v-10z" fill="#3B5998" fill-rule="evenodd"/></symbol><symbol id="facebook" viewBox="0 0 22 22"><path d="M15.193 21.989h5.609c.658 0 1.187-.53 1.187-1.187V1.198c0-.658-.53-1.187-1.187-1.187H1.198C.54.011.011.541.011 1.198v19.604c0 .658.53 1.187 1.187 1.187h10.549v-8.52H8.875v-3.311h2.872V7.63c0-2.65 1.642-4.296 4.229-4.296 1.557 0 2.605.122 2.605.122v2.987h-1.754c-1.112 0-1.634.39-1.634 1.57v2.144h3.273l-.42 3.312h-2.853v8.519z" fill="#FFF" fill-rule="evenodd"/></symbol><symbol id="file" viewBox="0 0 38 48"><path d="M25.263 20.21a7.569 7.569 0 0 1-7.579-7.578V2.526H7.58A5.067 5.067 0 0 0 2.526 7.58V40.42a5.067 5.067 0 0 0 5.053 5.053h22.737a5.067 5.067 0 0 0 5.052-5.053v-20.21H25.263zm-5.052-7.578a5.067 5.067 0 0 0 5.052 5.052h9.07L20.21 3.562v9.07zM7.579 0H20.21l17.684 17.684v22.737A7.569 7.569 0 0 1 30.315 48H7.58A7.569 7.569 0 0 1 0 40.421V7.58A7.569 7.569 0 0 1 7.579 0z" fill="#ECBD0B" fill-rule="evenodd"/></symbol><symbol id="files-green" viewBox="0 0 39 48"><path d="M27.53 18.286c-3.809 0-6.883-3.063-6.883-6.857V2.286h-9.176c-2.524 0-4.589 2.057-4.589 4.571v29.714c0 2.515 2.065 4.572 4.589 4.572h20.647c2.523 0 4.588-2.057 4.588-4.572V18.286h-9.177zm-4.589-6.857c0 2.514 2.065 4.571 4.588 4.571h8.236L22.941 3.223v8.206zM11.471 0h11.47L39 16v20.571c0 3.795-3.074 6.858-6.882 6.858H11.47c-3.809 0-6.883-3.063-6.883-6.858V6.857C4.588 3.063 7.662 0 11.471 0zm0 48C5.139 48 0 42.88 0 36.571V9.143h2.294V36.57c0 5.052 4.107 9.143 9.177 9.143h18.353V48H11.47z" fill="#00C758" fill-rule="evenodd"/></symbol><symbol id="flag" viewBox="0 0 21 24"><path d="M0 0h12.63l1.74 3H21v13.5h-9l-1.725-3H1.5V24H0V0zm19.5 15V4.5h-6l-1.725-3H1.5V12h9.63l1.74 3h6.63z" fill="#5A646F" fill-rule="evenodd"/></symbol><symbol id="flask" viewBox="0 0 22 24"><path d="M12.706 3.79h1.27V2.525a1.27 1.27 0 0 0-1.27-1.263H8.894a1.27 1.27 0 0 0-1.27 1.263V3.79h1.27v2.615L1.64 18.91a2.394 2.394 0 0 0-.368 1.302 2.541 2.541 0 0 0 2.54 2.526h13.977a2.541 2.541 0 0 0 2.541-2.526c0-.48-.127-.923-.368-1.302L12.706 6.404V3.79zM3.812 24A3.796 3.796 0 0 1 0 20.21c0-.757.229-1.465.635-2.058L7.624 6.076V5.053a1.27 1.27 0 0 1-1.271-1.264V2.526A2.541 2.541 0 0 1 8.894 0h3.812a2.541 2.541 0 0 1 2.541 2.526V3.79a1.27 1.27 0 0 1-1.27 1.264v1.023l6.988 12.076c.406.593.635 1.3.635 2.059A3.796 3.796 0 0 1 17.788 24H3.812zm7.992-8.476l2.07-2.046 3.914 6.733H3.812l4.65-8.009 3.342 3.322zm0 1.794L8.742 14.26 6.01 18.947h9.58l-1.982-3.423-1.804 1.794zm-.369-8.476c.7 0 1.27.569 1.27 1.263a1.27 1.27 0 0 1-2.54 0 1.27 1.27 0 0 1 1.27-1.263z" fill="#5A646F" fill-rule="evenodd"/></symbol><symbol id="google" viewBox="0 0 22 22"><use fill="#FFF" xlink:href="#a" transform="translate(-1 -1)" fill-rule="evenodd"/></symbol><symbol id="help-circle-blue" viewBox="0 0 48 48"><path d="M24 2.526C12.152 2.526 2.526 12.152 2.526 24S12.152 45.474 24 45.474 45.474 35.848 45.474 24 35.848 2.526 24 2.526zM24 0c13.263 0 24 10.737 24 24S37.263 48 24 48 0 37.263 0 24 10.737 0 24 0zm-1.263 35.368h2.526v5.053h-2.526v-5.053zM24 7.578c4.876 0 8.842 3.967 8.842 8.843 0 2.274-1.768 3.79-3.638 5.507l-2.35 2.274c-1.49 1.693-1.667 4.926-1.59 6.038v.076h-2.527c0-.127-.253-4.952 2.198-7.781l2.602-2.501c1.516-1.34 2.779-2.476 2.779-3.613A6.318 6.318 0 0 0 24 10.105a6.318 6.318 0 0 0-6.316 6.316h-2.526c0-4.876 3.966-8.842 8.842-8.842z" fill="#439BE5" fill-rule="evenodd"/></symbol><symbol id="ic_search" viewBox="0 0 24 24"><path d="M15.5 14h-.79l-.28-.27A6.471 6.471 0 0 0 16 9.5 6.5 6.5 0 1 0 9.5 16c1.61 0 3.09-.59 4.23-1.57l.27.28v.79l5 4.99L20.49 19l-4.99-5zm-6 0C7.01 14 5 11.99 5 9.5S7.01 5 9.5 5 14 7.01 14 9.5 11.99 14 9.5 14z"/></symbol><symbol id="information-circle-green" viewBox="0 0 48 48"><path d="M24 0c13.263 0 24 10.737 24 24S37.263 48 24 48 0 37.263 0 24 10.737 0 24 0zm0 2.526C12.152 2.526 2.526 12.152 2.526 24S12.152 45.474 24 45.474 45.474 35.848 45.474 24 35.848 2.526 24 2.526zm-1.263 10.106v5.052h2.526v-5.052h-2.526zm0 10.105v12.631h2.526V22.737h-2.526z" fill="#028F44" fill-rule="evenodd"/></symbol><symbol id="lightbulb" viewBox="0 0 17 24"><path d="M11.215 21.474c0 1.39-1.121 2.526-2.492 2.526H7.477c-1.37 0-2.492-1.137-2.492-2.526H6.23c0 .694.56 1.263 1.246 1.263h1.246c.685 0 1.246-.569 1.246-1.263h1.246zm1.247-3.79c0 1.39-1.122 2.527-2.493 2.527H6.231c-1.371 0-2.493-1.137-2.493-2.527v-2.526A8.336 8.336 0 0 1 0 8.21C0 3.676 3.626 0 8.1 0s8.1 3.676 8.1 8.21a8.336 8.336 0 0 1-3.738 6.948v2.526zm-7.477 0c0 .695.56 1.263 1.246 1.263h3.738c.686 0 1.246-.568 1.246-1.263V14.4c2.219-1.137 3.739-3.486 3.739-6.19 0-3.84-3.066-6.947-6.854-6.947-3.788 0-6.854 3.108-6.854 6.948 0 2.703 1.52 5.052 3.739 6.189v3.284zM3.9 8.994L6.854 6l2.492 2.526 2.18-2.21.886.897-3.066 3.094-2.492-2.526-2.069 2.11-.885-.897z" fill="#5A646F" fill-rule="evenodd"/></symbol><symbol id="linkedin" viewBox="4 4 16 16"><g fill="none" fill-rule="evenodd"><path d="M19.333 4H4.667c-.4 0-.667.267-.667.667v14.666c0 .4.267.667.667.667h14.666c.4 0 .667-.267.667-.667V4.667c0-.4-.267-.667-.667-.667zm-10.6 13.667H6.4V10h2.4v7.667h-.067zm-1.2-8.734c-.733 0-1.4-.6-1.4-1.4 0-.733.6-1.4 1.4-1.4.734 0 1.4.6 1.4 1.4 0 .8-.6 1.4-1.4 1.4zm10.134 8.734h-2.4v-3.734c0-.866 0-2-1.2-2-1.267 0-1.4.934-1.4 1.934v3.8h-2.4V10h2.266v1.067c.334-.6 1.067-1.2 2.267-1.2 2.4 0 2.867 1.6 2.867 3.666v4.134z" fill="#FFF"/><path d="M4 4h16v16H4z"/></g></symbol><symbol id="logo" viewBox="0 0 22 24"><path d="M16.5 18.45c2.467 0 4.575 1.35 5.5 3.4.925-2 3.033-3.4 5.449-3.4 2.467 0 4.574 1.45 5.5 3.5V12c-1.542 1.5-3.701 2.35-6.066 2.35H16.808c-2.261 0-4.317-.9-5.808-2.35v9.95c.925-2.05 3.033-3.5 5.5-3.5zm11 3c-1.645 0-2.93 1.3-2.93 2.85 0 .8.309 1.5.874 2.05.514.5 1.285.85 2.107.85a2.91 2.91 0 0 0 2.52-1.4.375.375 0 0 0 .102-.2c.206-.4.308-.8.308-1.25a2.977 2.977 0 0 0-2.981-2.9zm-11-.1c-.617 0-1.182.2-1.645.5-.77.5-1.285 1.4-1.285 2.4 0 .2 0 .4.051.6.258 1.3 1.44 2.3 2.879 2.3.874 0 1.645-.35 2.159-.95.462-.5.77-1.2.77-1.95 0-.8-.308-1.5-.873-2.05a2.555 2.555 0 0 0-.411-.35c-.463-.3-1.028-.5-1.645-.5zm16.5 5.2c-.463 1.05-1.234 1.9-2.159 2.55-.977.6-2.107.95-3.341.95-2.467 0-4.575-1.35-5.5-3.4-.925 2-3.033 3.4-5.449 3.4-2.467 0-4.574-1.45-5.5-3.5V36H22l-4.06-3.95c1.541-.25 2.93-.95 4.06-1.95 1.08 1 2.519 1.75 4.06 2L22 36h11v-9.45z" transform="translate(-11 -12)" fill="url(#a)" fill-rule="evenodd"/></symbol><symbol id="logotype" viewBox="0 0 308 76"><path d="M0 2.554v54.993h7.558V36.955h14.555c11.74 0 16.483-8.46 16.483-17.16 0-8.62-4.744-17.24-16.483-17.24H0zm22.032 6.944c6.433 0 9.086 5.268 9.086 10.296 0 5.109-2.734 10.217-9.488 10.217H7.558V9.498h14.474zm53.427 48.05h7.237V20.272h-7.237v5.587c-2.493-4.23-7.96-6.385-13.187-6.385-10.292 0-19.057 7.503-19.057 19.395 0 11.813 8.765 19.475 19.057 19.475 5.227 0 10.694-2.314 13.187-6.544v5.746zm-.08-18.757c0 7.901-5.79 12.45-12.464 12.45-6.754 0-12.222-5.107-12.222-12.45 0-7.423 5.468-12.212 12.222-12.212 6.03 0 12.464 4.23 12.464 12.212zm29.576-18.518V6.226h-7.317v14.047h-6.754v6.146h6.754v31.128h7.317V26.42h7.96v-6.146h-7.96zm23.466 17.16c0-7.98 6.272-10.854 11.418-10.854 5.146 0 8.845 3.751 8.845 9.897v21.071h7.317v-21.55c.08-10.456-5.789-16.522-15.197-16.522-4.1 0-10.131 1.916-12.383 6.385V0h-7.317v57.547h7.317V37.434zm47.75 3.672l5.146 1.197c2.733.639 5.065 1.996 4.985 4.71-.08 2.713-2.332 4.629-5.71 4.868-2.411.16-4.341-.319-5.95-1.277-1.768-.878-2.814-2.634-3.055-4.23h-6.674c.241 7.662 7.237 11.972 13.991 11.972 7.8 0 14.554-4.23 14.554-11.174 0-4.23-1.93-8.94-9.73-10.855l-5.547-1.357c-1.93-.558-3.7-1.357-4.423-2.873-.402-.878-.402-1.756-.08-2.953.563-1.996 2.894-3.352 5.628-3.352 2.895 0 5.468 1.436 5.87 4.23h6.996c-.644-7.583-6.674-10.536-13.027-10.536-6.673 0-12.463 4.07-13.026 9.498-.643 6.864 3.217 10.296 10.051 12.132zm33.999-3.671c0-7.982 6.272-10.855 11.418-10.855 5.146 0 8.845 3.751 8.845 9.897v21.071h7.317v-21.55c.08-10.456-5.79-16.522-15.197-16.522-4.101 0-10.132 1.916-12.383 6.385V0h-7.318v57.547h7.318V37.434zm46.462 20.113h-7.237V20.273h7.237v37.274zm-8.684-51.002c0-2.714 2.332-4.71 5.066-4.71 2.814 0 5.066 1.996 5.066 4.71s-2.252 4.709-5.066 4.709c-2.734 0-5.066-1.995-5.066-4.71zm28.13 13.728h-7.318v55.392h7.318V51.96c2.492 4.31 7.88 6.385 13.106 6.385 10.293 0 18.816-7.502 18.816-19.315 0-11.813-8.523-19.555-18.816-19.555-5.226 0-10.614 2.395-13.106 6.625v-5.827zm.08 18.837c0-7.902 5.709-12.531 12.303-12.531 6.754 0 12.141 5.108 12.141 12.53 0 7.424-5.387 12.133-12.141 12.133-6.031 0-12.303-4.15-12.303-12.132z" fill="#3D4752" fill-rule="evenodd"/></symbol><symbol id="menu" viewBox="0 0 18 12"><g fill="none" fill-rule="evenodd"><path d="M-3-6h23.983v24H-3V-6z"/><path d="M-.002 12h17.987v-2H-.002v2zm0-5h17.987V5H-.002v2zm0-7v2h17.987V0H-.002z" fill="#A4ADB5"/></g></symbol><symbol id="message-purple" viewBox="0 0 48 44"><path d="M2.286 31.063l8.205-8.206H32a4.585 4.585 0 0 0 4.571-4.571V6.857A4.585 4.585 0 0 0 32 2.286H6.857a4.585 4.585 0 0 0-4.571 4.571v24.206zm0 3.223H0V6.857A6.848 6.848 0 0 1 6.857 0H32a6.848 6.848 0 0 1 6.857 6.857v11.429A6.848 6.848 0 0 1 32 25.143H11.429l-9.143 9.143zm43.428 5.92V16a4.585 4.585 0 0 0-4.571-4.571V9.143A6.848 6.848 0 0 1 48 16v27.429h-2.286l-9.143-9.143H16a6.862 6.862 0 0 1-6.309-4.16l1.829-1.829A4.51 4.51 0 0 0 16 32h21.509l8.205 8.206z" fill="#7443BF" fill-rule="evenodd"/></symbol><symbol id="message-video" viewBox="0 0 48 48"><path d="M2.526 44.438l9.07-9.07H40.42a5.067 5.067 0 0 0 5.053-5.052V7.579a5.067 5.067 0 0 0-5.053-5.053H7.58A5.067 5.067 0 0 0 2.526 7.58v36.859zm0 3.562H0V7.579A7.569 7.569 0 0 1 7.579 0H40.42A7.569 7.569 0 0 1 48 7.579v22.737a7.569 7.569 0 0 1-7.579 7.579h-27.79L2.527 48zm35.369-37.895V27.79h-2.527l-5.052-5.052v5.052h-20.21V10.105h20.21v5.053l5.052-5.053h2.527zm-7.58 8.615v.455l5.053 5.052v-10.56l-5.052 5.053zm-17.683-6.088v12.631h15.157V12.632H12.632z" fill="#9552CC" fill-rule="evenodd"/></symbol><symbol id="owl-faded" viewBox="0 0 44 48"><path d="M11 12.9c4.935 0 9.15 2.7 11 6.8 1.85-4 6.065-6.8 10.897-6.8 4.935 0 9.15 2.9 11 7V0c-3.084 3-7.402 4.7-12.13 4.7h-20.15A16.63 16.63 0 0 1 0 0v19.9c1.85-4.1 6.065-7 11-7zm22 6c-3.29 0-5.86 2.6-5.86 5.7 0 1.6.617 3 1.748 4.1 1.028 1 2.57 1.7 4.215 1.7 2.159 0 4.01-1.1 5.037-2.8.103-.1.206-.3.206-.4.411-.8.617-1.6.617-2.5A5.954 5.954 0 0 0 33 18.9zm-22-.2c-1.234 0-2.364.4-3.29 1-1.542 1-2.57 2.8-2.57 4.8 0 .4 0 .8.103 1.2.514 2.6 2.878 4.6 5.757 4.6 1.748 0 3.29-.7 4.318-1.9.925-1 1.542-2.4 1.542-3.9 0-1.6-.617-3-1.748-4.1-.308-.3-.514-.5-.822-.7-.926-.6-2.056-1-3.29-1zm33 10.4c-.925 2.1-2.467 3.8-4.318 5.1A12.663 12.663 0 0 1 33 36.1c-4.935 0-9.15-2.7-11-6.8-1.85 4-6.065 6.8-10.897 6.8-4.935 0-9.15-2.9-11-7V48H22l-8.121-7.9c3.084-.5 5.86-1.9 8.121-3.9 2.159 2 5.037 3.5 8.121 4L22 48h22V29.1z" fill="#EFF5F8" fill-rule="evenodd"/></symbol><symbol id="pathship-transparent" viewBox="0 0 24 28"><g fill="none" fill-rule="evenodd"><path d="M-7-2h32v32H-7z"/><g fill="#FFF"><path fill-opacity=".6" d="M12 0l12 9-12 9v10H0V0z"/><path fill-opacity=".904" d="M0 0h12v9z"/><path fill-opacity=".596" d="M12 0l12 9H12zM12 9L0 18h12z"/></g></g></symbol><symbol id="pathship-white" viewBox="0 0 32 32"><g fill="none" fill-rule="evenodd"><path d="M0 0h32v32H0z"/><path fill-opacity=".6" fill="#FFF" d="M19 2l12 9-12 9v10H7V2z"/><path fill-opacity=".904" fill="#FFF" d="M7 2h12v9z"/><path fill-opacity=".596" fill="#FFF" d="M19 2l12 9H19zM19 11L7 20h12z"/></g></symbol><symbol id="pathship" viewBox="0 0 32 32"><g fill="none" fill-rule="evenodd"><path d="M0 0h32v32H0z"/><g transform="translate(7 2)"><mask id="b" fill="#fff"><use xlink:href="#a"/></mask><use fill="#9A76D1" style="mix-blend-mode:multiply" xlink:href="#a"/><path fill="#6D49A3" mask="url(#b)" d="M0 0h12v9z"/></g><path fill="#8256C6" d="M19 2l12 9H19zM19 11L7 20h12z"/><path fill="#9A76D1" d="M31 11H19v9z"/><path fill="#6D49A3" d="M16 2h3v3h-3z"/></g></symbol><symbol id="plus-circle" viewBox="0 0 24 24"><path d="M6.316 11.368h5.052V6.316h1.264v5.052h5.052v1.264h-5.052v5.052h-1.264v-5.052H6.316v-1.264zM12 0c6.632 0 12 5.368 12 12s-5.368 12-12 12S0 18.632 0 12 5.368 0 12 0zm0 1.263C6.076 1.263 1.263 6.076 1.263 12S6.076 22.737 12 22.737 22.737 17.924 22.737 12 17.924 1.263 12 1.263z" fill="#5A646F" fill-rule="evenodd"/></symbol><symbol id="purple-calendar" viewBox="0 0 43 48"><path d="M10.118 0h2.53a2.535 2.535 0 0 1 2.528 2.526v2.527h12.648V2.526A2.535 2.535 0 0 1 30.353 0h2.53a2.535 2.535 0 0 1 2.529 2.526v2.527A7.573 7.573 0 0 1 43 12.632v27.79A7.573 7.573 0 0 1 35.412 48H7.588A7.573 7.573 0 0 1 0 40.421v-27.79a7.573 7.573 0 0 1 7.588-7.578V2.526A2.535 2.535 0 0 1 10.118 0zm20.235 5.053h2.53V2.526h-2.53v2.527zm-17.706 0V2.526h-2.53v2.527h2.53zM7.588 7.579c-2.782 0-5.059 2.274-5.059 5.053v2.526h37.942v-2.526c0-2.78-2.277-5.053-5.06-5.053H7.589zM2.53 40.42c0 2.779 2.277 5.053 5.06 5.053h27.823c2.782 0 5.059-2.274 5.059-5.053V17.684H2.529v22.737zM22.765 27.79h12.647v12.632H22.765V27.79zm2.53 2.527v7.579h7.587v-7.58h-7.588z" fill="#9551D0" fill-rule="evenodd"/></symbol><symbol id="school-purple" viewBox="0 0 53 43"><path d="M11.727 24.21v8.728L27 41.273l15.273-8.335v-8.727L27 32.545l-15.273-8.334zM27 2L3 15.09l24 13.092 19.636-10.713v15.076H51V15.091L27 2z" stroke="#A85DCE" stroke-width="2.5" fill="none" fill-rule="evenodd"/></symbol><symbol id="signup_parent-blue" viewBox="0 0 62 64"><g fill="#009CE9" fill-rule="evenodd"><path d="M22 40h6v2h-6v-2zM22 8h14v2H22V8zM22 12h14v2H22v-2zM14 16h22v2H14v-2zM14 20h22v2H14v-2zM18 24h18v2H18v-2zM18 28h18v2H18v-2zM18 32h18v2H18v-2zM16 12h2v-2h-2v2zm-2-4h6v6h-6V8zM17 44h21v2H17v-2z"/><path d="M42 32h-2V2H10v20H8V2c0-1.103.897-2 2-2h30c1.103 0 2 .897 2 2v30M6 55H4v-2.838L.052 40.316a.992.992 0 0 1 .002-.639l3.07-9a.995.995 0 0 1 .429-.532l4.965-3 1.035 1.71-4.654 2.813-2.843 8.336 3.892 11.68c.034.102.052.209.052.316v3"/><path d="M18 55h-2V43.109L14 34v-6c0-1.141-.82-2-1.906-2-1.135 0-2.094.916-2.094 2l-.01 8.142-1 7-1.98-.284.99-6.929V28c0-2.168 1.875-4 4.094-4C14.284 24 16 25.757 16 28v5.891L18 43v12M14 58h2v2h-2v-2zM46 41h-2V26c0-1.654 1.346-3 3-3s3 1.346 3 3v6h-2v-6a1 1 0 0 0-2 0v15M54 34h-2v-2a1 1 0 0 0-1-1v-2c1.654 0 3 1.346 3 3v2M58 36h-2v-2a1 1 0 0 0-1-1v-2c1.654 0 3 1.346 3 3v2M59 55h-2l.042-2.287L60 42.854V36a1 1 0 0 0-1-1v-2c1.654 0 3 1.346 3 3l-.042 7.287L59 53.146V55"/><path d="M48 26h2v12h-2V26zM52 34h2v4h-2v-4zM56 36h2v2h-2v-2zM47 55h-2v-3.667l-2.895-3.886L40 43.236V37c0-1.626 1.417-3 3.094-3H45v2h-1.906C42.52 36 42 36.477 42 37v5.764l1.854 3.708L47 50.667V55M48 58h2v2h-2v-2zM46 17h2v2h-2v-2zM46 13h2v2h-2v-2zM46 9h2v2h-2V9z"/><path d="M60 64h-2v-8H46v8h-2v-8c0-1.103.897-2 2-2h12c1.103 0 2 .897 2 2v8M20 64h-2v-8H6v8H4v-8c0-1.103.897-2 2-2h12c1.103 0 2 .897 2 2v8"/></g></symbol><symbol id="signup_student-purple" viewBox="0 0 60 64"><g fill="#7142C3" fill-rule="evenodd"><path d="M43 64H5a1 1 0 0 1-1-1V11a1 1 0 0 1 1-1h5v2H6v50h36V18h2v45a1 1 0 0 1-1 1M0 8h2v44H0V8z"/><path d="M13.328 14H40c3.309 0 6-2.691 6-6s-2.691-6-6-6H13.286A7.984 7.984 0 0 1 16 8c0 2.797-1.192 4.73-2.672 6zM40 16H9a1 1 0 0 1-.164-1.986C9.043 13.978 14 13.059 14 8c0-3.309-2.691-6-6-6S2 4.691 2 8H0c0-4.411 3.589-8 8-8h32c4.411 0 8 3.589 8 8s-3.589 8-8 8zM10 26h28v2H10v-2zM10 30h28v2H10v-2zM10 34h28v2H10v-2zM10 38h28v2H10v-2zM10 42h28v2H10v-2zM10 46h28v2H10v-2zM10 50h28v2H10v-2zM23 20h2v2h-2v-2zM27 20h2v2h-2v-2zM19 20h2v2h-2v-2zM28 56h10v2H28v-2z"/><path d="M5 14h4v2H5v-2zM53 52h-2c-1.654 0-3-1.346-3-3V32h2v17a1 1 0 0 0 1 1h2v2M53 12h6v2h-6v-2zM53 54h6v2h-6v-2z"/><path d="M54 6.277V60c0 1.103.897 2 2 2s2-.897 2-2V6.277l-2-3.334-2 3.334zM56 64c-2.206 0-4-1.794-4-4V6c0-.182.049-.359.143-.515l3-5c.361-.601 1.353-.601 1.714 0l3 5A.995.995 0 0 1 60 6v54c0 2.206-1.794 4-4 4z"/></g></symbol><symbol id="star-blue" viewBox="0 0 48 46"><path d="M28.938 18.425L24 6.796l-4.938 11.655-12.61 1.089 9.583 8.336-2.867 12.292L24 33.638l10.858 6.53-2.893-12.292 9.584-8.336-12.61-1.115zm9.903 27.239L24 36.744l-14.814 8.92 3.876-16.859L0 17.442l17.23-1.513L24 0l6.77 15.93L48 17.441 34.938 28.78l3.903 16.885z" fill="#48B0E4" fill-rule="evenodd"/></symbol><symbol id="twitter-logo" viewBox="0 0 16 13"><path d="M16 1.543a6.574 6.574 0 0 1-1.888.508A3.27 3.27 0 0 0 15.553.244c-.63.375-1.34.65-2.08.792A3.271 3.271 0 0 0 11.075 0a3.278 3.278 0 0 0-3.279 3.28c0 .253.03.507.081.75A9.32 9.32 0 0 1 1.117.6 3.255 3.255 0 0 0 .67 2.254c0 1.137.579 2.142 1.462 2.73A3.303 3.303 0 0 1 .65 4.57v.04a3.28 3.28 0 0 0 2.63 3.218 3.467 3.467 0 0 1-.864.112c-.213 0-.416-.02-.619-.05a3.285 3.285 0 0 0 3.066 2.273 6.567 6.567 0 0 1-4.071 1.401 6.78 6.78 0 0 1-.792-.04 9.266 9.266 0 0 0 5.036 1.472c6.03 0 9.33-4.995 9.33-9.33 0-.142 0-.284-.01-.426A7.05 7.05 0 0 0 16 1.543z" fill="#4099FF" fill-rule="evenodd"/></symbol><symbol id="whatsapp-logo" viewBox="0 0 32 32"><g fill="none" fill-rule="evenodd"><path d="M-8-8h48v48H-8z"/><path d="M0 32l2.25-8.217a15.829 15.829 0 0 1-2.117-7.927C.136 7.113 7.25 0 15.99 0a15.86 15.86 0 0 1 15.857 15.868c-.004 8.743-7.118 15.857-15.857 15.857h-.006c-2.648 0-5.253-.664-7.578-1.93L0 32zm8.795-5.076l.481.286a13.16 13.16 0 0 0 6.708 1.837h.006c7.264 0 13.176-5.912 13.18-13.18A13.182 13.182 0 0 0 15.994 2.678c-7.27 0-13.182 5.912-13.185 13.179a13.147 13.147 0 0 0 2.015 7.014l.314.498-1.332 4.864 4.988-1.309zM23.98 19.64c-.1-.165-.363-.264-.76-.462-.396-.199-2.344-1.157-2.707-1.29-.363-.132-.627-.198-.891.199-.265.396-1.024 1.289-1.255 1.553-.231.265-.462.298-.858.1-.397-.199-1.673-.617-3.187-1.968-1.177-1.05-1.973-2.348-2.204-2.744-.23-.397-.024-.611.174-.809.178-.177.397-.463.594-.694.198-.232.264-.397.396-.661.133-.264.067-.496-.033-.694-.099-.199-.89-2.149-1.221-2.942-.322-.773-.649-.668-.892-.68-.23-.012-.495-.014-.759-.014-.406.01-.789.19-1.056.495-.364.397-1.387 1.356-1.387 3.306s1.42 3.834 1.618 4.099c.198.264 2.794 4.266 6.768 5.982.738.318 1.492.597 2.26.835.948.302 1.812.26 2.495.157.76-.114 2.344-.958 2.674-1.884.33-.926.33-1.719.23-1.884z" fill="#FFF"/></g></symbol><symbol id="whiteboard-yellow" viewBox="0 0 45 48"><path d="M0 2.526h18.573c0-1.39 1.044-2.526 2.321-2.526h2.322c1.277 0 2.321 1.137 2.321 2.526H44.11v2.527H41.79v27.79H28.486L32.224 48h-2.415l-3.738-15.158H18.04L14.3 48h-2.414l3.737-15.158H2.322V5.052H0V2.527zm39.467 27.79V5.053H4.643v25.263h34.824zm-20.894-20.21h2.321l6.965 7.578-6.965 7.58h-2.321V10.104zm2.321 3.561v8.034l3.692-4.017-3.692-4.017z" fill="#E3AF00" fill-rule="evenodd"/></symbol><symbol id="xml" viewBox="0 0 32 24"><path d="M22.983 20.384l-1.119-1.12L29.021 12l-7.157-7.264 1.12-1.12L31.243 12l-8.26 8.384zm-14.723 0L0 12l8.26-8.384 1.12 1.12L2.222 12l7.156 7.264-1.119 1.12zM17.56 0h1.577l-5.454 24h-1.577l5.455-24z" fill="#5A646F" fill-rule="evenodd"/></symbol></svg>